<svg xmlns="http://www.w3.org/2000/svg" viewBox="0 0 32 32" width="32" height="32">
  <!-- Cloud shape (nuvola = cloud in Italian) -->
  <defs>
    <linearGradient id="cloudGrad" x1="0%" y1="0%" x2="100%" y2="100%">
      <stop offset="0%" style="stop-color:#6C5CE7;stop-opacity:1" />
      <stop offset="100%" style="stop-color:#a29bfe;stop-opacity:1" />
    </linearGradient>
  </defs>
  <!-- Background rounded square -->
  <rect x="1" y="1" width="30" height="30" rx="6" ry="6" fill="#1e1e2e"/>
  <!-- Cloud -->
  <path d="M8.5 21.5c-1.9 0-3.5-1.6-3.5-3.5 0-1.7 1.2-3.1 2.8-3.4C8 12.4 9.9 10.5 12.2 10.5c1.6 0 3 .9 3.8 2.2.5-.2 1-.3 1.5-.3 2.2 0 4 1.8 4 4h.3c1.8 0 3.2 1.4 3.2 3.1 0 0 0 0 0 0H8.5z"
        fill="url(#cloudGrad)" opacity="0.9"/>
  <!-- NV text -->
  <text x="16" y="24.5" font-family="monospace" font-size="7" font-weight="bold"
        fill="#ffffff" text-anchor="middle" letter-spacing="0.5">NV</text>
</svg>
